<?xml version="1.0" ?><svg fill="none" height="2000" viewBox="0 0 2000 2000" width="2000" xmlns="http://www.w3.org/2000/svg"><path d="M776.373 279.031C758.54 279.156 756.046 260.325 754.051 246.733L743.7 259.702C728.611 278.532 699.056 257.707 711.402 237.255C683.593 241.62 673.118 198.223 717.138 196.103C703.296 189.119 687.708 179.392 696.936 161.684C708.284 144.101 724.62 154.077 737.964 162.557C734.223 147.468 730.482 128.264 750.559 123.65C770.636 119.035 774.502 139.986 776.622 155.449L786.973 142.605C803.184 122.527 833.612 147.094 817.65 167.171L808.546 178.644C843.588 166.049 855.685 205.331 828.25 214.933C847.953 229.274 827.876 259.951 806.8 247.73L792.709 239.624C797.198 256.584 799.692 277.16 776.373 279.031ZM756.794 230.272C766.77 230.521 762.281 263.443 770.886 267.309C779.49 271.175 787.845 265.688 785.975 257.457C786.224 253.467 777.62 228.152 782.982 225.907C790.838 221.542 810.292 243.74 819.146 240.123C828 236.507 828.873 226.281 821.516 222.291L812.038 216.804C808.048 214.684 809.17 208.324 813.535 207.7C817.899 207.077 828.998 206.328 831.492 201.34C836.605 194.482 829.871 184.38 821.64 186.251L797.198 190.865C792.834 191.863 789.467 186.251 792.46 182.884C795.452 179.517 814.033 160.063 812.038 153.828C811.29 145.348 799.817 141.981 794.704 148.84L777.62 170.04C760.785 182.261 772.881 128.264 752.429 133.376C731.479 136.245 762.53 181.762 742.328 176.649L718.884 163.056C708.035 156.571 698.058 173.781 709.157 180.016L733.724 194.107C734.588 194.621 735.277 195.385 735.7 196.297C736.122 197.21 736.26 198.229 736.093 199.22C735.95 200.24 735.486 201.189 734.769 201.928C734.051 202.668 733.118 203.161 732.103 203.336L705.291 208.448C692.946 210.568 696.562 230.147 709.032 227.653L722.5 225.034C726.865 224.036 730.232 229.648 727.239 233.015L720.63 241.246C712.649 250.973 728.112 263.443 735.968 253.467C738.463 251.471 753.053 229.149 756.794 230.272V230.272Z" fill="#D13535"/><path d="M1715.44 971.631C1697.36 971.631 1695.24 953.299 1692.99 939.332L1682.77 952.302C1667.68 971.132 1638.12 950.431 1650.47 929.855C1622.66 934.219 1612.18 890.822 1656.2 888.702C1642.36 881.719 1626.65 871.992 1636 854.284C1647.22 836.701 1663.69 846.677 1677.03 855.157C1673.29 839.943 1669.42 820.863 1689.62 816.249C1709.83 811.635 1713.57 832.585 1715.69 848.049C1721.67 841.315 1728.78 828.096 1739.26 827.971C1756.09 825.602 1767.81 846.802 1756.72 859.771L1747.61 871.244C1782.65 858.649 1794.75 897.93 1767.32 907.533C1786.89 921.874 1766.94 952.551 1745.74 940.33L1731.77 932.224C1736.14 949.184 1738.76 969.76 1715.44 971.631ZM1695.86 922.871C1697.02 922.882 1698.15 923.3 1699.03 924.051C1699.92 924.803 1700.52 925.841 1700.72 926.987L1705.84 953.673C1707.21 962.028 1718.93 964.523 1723.54 957.414C1728.03 952.8 1720.18 928.857 1719.93 923.495C1721.67 902.669 1754.6 947.064 1764.07 928.234C1769.81 918.756 1757.71 912.895 1751.1 909.403C1747.11 907.283 1748.24 900.923 1752.6 900.175C1760.08 898.928 1774.55 897.806 1772.18 886.582C1768.06 867.877 1738.26 889.949 1731.03 881.22C1730.54 880.327 1730.31 879.313 1730.38 878.297C1730.45 877.282 1730.8 876.306 1731.4 875.484L1748.98 853.536C1757.09 843.809 1741.5 831.463 1733.77 841.439L1716.69 862.639C1716.09 863.364 1715.3 863.905 1714.41 864.202C1713.52 864.499 1712.57 864.539 1711.66 864.318C1710.74 864.097 1709.91 863.623 1709.26 862.951C1708.6 862.279 1708.15 861.436 1707.96 860.519C1704.84 852.289 1706.58 822.609 1691.49 825.976C1690.23 826.201 1689.03 826.674 1687.95 827.367C1686.87 828.061 1685.94 828.96 1685.21 830.015C1684.47 831.07 1683.96 832.259 1683.69 833.513C1683.42 834.768 1683.4 836.063 1683.64 837.324L1688.75 864.011C1688.89 864.933 1688.77 865.877 1688.4 866.735C1688.04 867.592 1687.43 868.329 1686.67 868.862C1685.9 869.395 1685 869.701 1684.07 869.748C1683.14 869.794 1682.21 869.578 1681.39 869.124L1657.95 855.656C1647.1 849.171 1637.12 866.38 1648.22 872.615L1672.79 886.707C1673.65 887.221 1674.34 887.984 1674.77 888.897C1675.19 889.809 1675.33 890.828 1675.16 891.82C1675 892.833 1674.53 893.772 1673.81 894.508C1673.1 895.244 1672.18 895.743 1671.17 895.935L1644.36 901.048C1632.01 903.168 1635.63 922.747 1647.97 920.253L1661.57 917.634C1665.93 916.636 1669.3 922.248 1666.3 925.615L1659.7 933.845C1651.71 943.572 1667.18 956.043 1675.03 946.066C1677.53 944.071 1692.12 921.749 1695.86 922.871Z" fill="#D13535"/><path d="M1680.25 321.886C1671.14 327.373 1663.66 201.92 1661.29 200.174C1660.42 193.815 1670.52 192.567 1671.14 199.052L1685.11 316.274C1685.2 316.969 1685.14 317.675 1684.93 318.345C1684.73 319.016 1684.39 319.636 1683.93 320.165C1683.47 320.695 1682.91 321.122 1682.27 321.418C1681.64 321.714 1680.95 321.874 1680.25 321.886Z" fill="#EFDCC4"/><path d="M1721.15 308.667C1719.89 308.649 1718.69 308.16 1717.78 307.295L1622.01 217.383C1621.05 216.463 1620.49 215.206 1620.45 213.88C1620.4 212.553 1620.87 211.261 1621.76 210.275C1625.13 198.428 1721.4 300.686 1724.52 300.062C1727.88 302.93 1725.51 308.792 1721.15 308.667Z" fill="#EFDCC4"/><path d="M1632.61 315.277C1631.69 315.255 1630.8 314.98 1630.03 314.484C1629.26 313.988 1628.64 313.29 1628.24 312.465C1627.84 311.641 1627.68 310.722 1627.77 309.811C1627.85 308.899 1628.19 308.029 1628.74 307.296C1632.36 306.922 1711.55 192.319 1716.91 203.168C1717.44 203.56 1717.88 204.055 1718.21 204.623C1718.54 205.191 1718.76 205.82 1718.84 206.473C1718.92 207.126 1718.87 207.789 1718.69 208.421C1718.51 209.053 1718.2 209.642 1717.78 210.152L1636.47 313.407C1636.03 314.009 1635.45 314.493 1634.77 314.819C1634.1 315.145 1633.36 315.302 1632.61 315.277V315.277Z" fill="#EFDCC4"/><path d="M1614.53 270.259C1608.54 270.383 1607.92 260.906 1614.03 260.282L1731.25 246.315C1732.55 246.175 1733.86 246.554 1734.89 247.371C1735.92 248.188 1736.58 249.377 1736.74 250.68C1744.34 260.656 1616.02 267.64 1614.53 270.259Z" fill="#EFDCC4"/><path d="M1172.7 477.877C1163.72 483.363 1156.24 357.911 1153.87 356.165C1152.99 349.805 1162.97 348.558 1163.72 355.043L1177.69 472.265C1177.77 472.97 1177.71 473.687 1177.5 474.366C1177.29 475.045 1176.94 475.671 1176.46 476.202C1175.99 476.734 1175.41 477.158 1174.76 477.447C1174.11 477.736 1173.41 477.882 1172.7 477.877Z" fill="#CE9C5C"/><path d="M1213.72 464.658C1212.43 464.636 1211.19 464.149 1210.23 463.286L1114.46 373.375C1113.5 372.454 1112.94 371.197 1112.9 369.871C1112.85 368.544 1113.32 367.252 1114.21 366.266C1117.58 354.419 1213.97 456.677 1217.09 456.053C1220.33 458.922 1217.96 464.783 1213.72 464.658Z" fill="#CE9C5C"/><path d="M1125.18 471.268C1121.19 471.392 1118.58 466.404 1121.19 463.287C1124.81 462.912 1204 348.309 1209.48 359.158C1210.5 359.989 1211.15 361.177 1211.31 362.476C1211.48 363.775 1211.13 365.088 1210.36 366.142L1129.05 469.397C1128.59 469.977 1128 470.446 1127.33 470.77C1126.66 471.093 1125.93 471.263 1125.18 471.268V471.268Z" fill="#CE9C5C"/><path d="M1107.1 426.249C1101.12 426.374 1100.37 416.896 1106.48 416.272L1223.83 402.306C1225.13 402.165 1226.44 402.544 1227.47 403.361C1228.49 404.178 1229.16 405.367 1229.31 406.67C1236.8 416.647 1108.6 423.63 1107.1 426.249Z" fill="#CE9C5C"/><path d="M879.987 1071.95C811.275 949.236 962.915 780.511 963.788 781.384C968.028 784.751 1039.73 763.801 1085.13 764.3C1043.97 740.606 996.96 729.507 948.699 734.62C904.928 782.132 879.738 839.247 873.627 855.334C869.269 866.755 862.485 877.096 853.745 885.643C845.004 894.19 834.514 900.74 822.997 904.841C742.313 933.523 669.985 1001.36 685.947 1092.65C685.947 1092.65 797.682 1136.67 798.804 1136.42C799.927 1136.17 830.978 1085.29 836.715 1086.04C855.794 1100.75 867.142 1110.98 867.142 1110.98C867.142 1110.98 874.375 1096.51 879.987 1071.95Z" fill="#452D34"/><path d="M1227.16 1026.55C1230.41 1007.6 1200.98 879.776 1145.11 812.81C1145 816.16 1144.41 819.478 1143.36 822.661C1109.07 930.281 1169.55 968.565 1003.82 1144.4C902.807 1251.52 994.215 1279.95 896.447 1365.75C742.188 1500.8 964.162 1699.33 1073.4 1656.31C1233.02 1593.58 1259.96 1343.43 1198.73 1189.92C1170.17 1118.21 1192.62 1066.58 1227.16 1026.55Z" fill="#452D34"/><path d="M1190.5 1270.47C1191.25 1274.96 1192 1279.33 1192.62 1283.82C1195.61 1290.3 1189.63 1309.63 1200.73 1311.5C1216.44 1311.88 1199.6 1237.55 1190.5 1270.47Z" fill="white"/><path d="M810.651 924.67C791.039 932.169 773.598 944.425 759.897 960.335C757.777 962.829 757.278 966.695 759.897 969.189C762.515 971.683 766.506 971.808 768.751 969.189C771.85 965.489 775.182 961.99 778.727 958.714L784.214 953.975L785.835 952.728C786.957 951.731 785.212 953.227 786.209 952.354L789.327 950.109C793.264 947.295 797.389 944.753 801.673 942.502L808.032 939.135L811.4 937.764C811.774 937.514 811.649 937.639 811.025 937.888L812.023 937.39L813.894 936.641C817.011 935.519 819.381 932.401 818.258 929.034C817.136 925.667 813.894 923.423 810.651 924.67V924.67Z" fill="white"/><path d="M734.706 985.526C731.019 987.217 727.711 989.635 724.98 992.634C723.472 994.269 722.096 996.02 720.864 997.872C719.669 999.805 718.666 1001.85 717.871 1003.98C717.567 1005.17 717.617 1006.41 718.016 1007.57C718.415 1008.73 719.145 1009.74 720.115 1010.48C721.085 1011.23 722.253 1011.67 723.472 1011.76C724.692 1011.84 725.91 1011.57 726.975 1010.97L728.222 1010.09C729.01 1009.35 729.573 1008.4 729.843 1007.35L730.092 1006.85L729.469 1008.35C730.388 1006.22 731.56 1004.21 732.961 1002.36L731.963 1003.61C733.442 1001.69 735.16 999.974 737.076 998.495L735.829 999.493C737.427 998.253 739.139 997.167 740.942 996.25C742.351 995.427 743.38 994.084 743.81 992.509C744.053 991.721 744.123 990.89 744.015 990.072C743.908 989.254 743.625 988.469 743.186 987.771C742.363 986.362 741.02 985.332 739.445 984.902C737.841 984.557 736.167 984.777 734.706 985.526V985.526Z" fill="white"/><path d="M1149.22 785.001C1150.41 786.231 1151.54 787.521 1152.59 788.867C1158.08 795.975 1162.44 808.071 1163.69 819.419C1166.81 841.741 1161.07 872.793 1168.05 897.359C1168.27 898.157 1168.64 898.903 1169.15 899.556C1169.66 900.208 1170.29 900.753 1171.01 901.159C1171.73 901.565 1172.52 901.824 1173.34 901.921C1174.16 902.018 1174.99 901.951 1175.79 901.724C1184.39 899.355 1177.53 886.76 1177.91 883.143C1174.41 854.96 1181.52 825.53 1171.42 798.22C1170.55 786.497 1143.99 758.813 1149.22 785.001Z" fill="white"/><path d="M1171.3 927.912C1179.9 952.105 1211.95 948.862 1189.75 931.902L1191 932.775C1188.74 931.116 1186.72 929.142 1185.01 926.914L1186.01 928.161C1183.14 917.936 1168.05 913.82 1171.3 927.912Z" fill="white"/><path d="M918.645 1555.55C912.935 1550.8 907.751 1545.44 903.182 1539.59C900.189 1536.1 892.956 1523.75 889.963 1516.52C886.252 1507.3 883.657 1497.67 882.231 1487.83C879.737 1474.37 882.73 1447.43 888.966 1434.59C895.949 1427.48 890.462 1411.14 881.359 1421.62C830.978 1479.98 918.77 1599.57 918.645 1555.55V1555.55Z" fill="white"/><path d="M926.751 1359.51C923.972 1360.3 921.605 1362.14 920.142 1364.63C919.144 1366.25 918.146 1367.62 917.149 1369.12L918.022 1367.74C915.534 1371.08 912.597 1374.06 909.292 1376.6L910.54 1375.6C906.923 1377.72 902.933 1381.59 905.676 1385.95C917.897 1400.54 944.21 1355.02 926.751 1359.51Z" fill="white"/><path d="M1349.87 867.431C1344.88 926.915 1271.93 1050.5 1232.9 1047.25C1237.51 1029.67 1210.2 873.167 1143.36 812.935C1093.36 768.042 1044.72 728.635 977.88 735.868L975.261 733.623C1012.05 673.142 1077.89 660.172 1148.6 666.408C1154.46 667.031 1164.56 664.911 1175.79 661.544C1219.87 648.797 1266.82 649.973 1310.22 664.911C1393.89 693.593 1513.23 731.503 1552.14 678.255C1553.27 711.675 1549.52 742.228 1531.82 770.66C1514.11 799.093 1487.8 831.017 1442.15 843.987C1393.27 857.829 1351.12 853.464 1349.87 867.431Z" fill="#D13535"/><path d="M1221.05 1024.81C1220.96 1024.96 1220.91 1025.12 1220.89 1025.29C1220.86 1025.46 1220.88 1025.64 1220.93 1025.8C1221.02 1025.48 1221.07 1025.14 1221.05 1024.81V1024.81Z" fill="#452D34"/><path d="M1555.13 602.559C1532.19 610.415 1518.35 639.347 1530.32 661.17C1455.75 718.534 1339.65 645.083 1258.34 632.488C1218.56 625.131 1179.28 633.735 1140.87 643.337C1069.29 637.601 990.474 660.547 948.075 722.026C943.835 727.263 936.726 739.734 947.825 740.856C1119.67 725.393 1203.84 876.908 1221.05 1024.81C1221.3 1024.56 1220.93 1025.68 1220.93 1025.93C1220.72 1026.85 1220.73 1027.81 1220.94 1028.73C1221.15 1029.65 1221.56 1030.51 1222.15 1031.25C1222.73 1031.99 1223.47 1032.59 1224.32 1033C1225.17 1033.42 1226.09 1033.65 1227.04 1033.66C1283.4 1028.17 1337.03 902.972 1342.02 850.845C1342.14 851.095 1341.64 852.217 1342.02 851.593C1393.27 836.38 1459.99 839.372 1498.15 790.488C1527.58 756.694 1539.3 736.242 1544.66 682.619C1566.98 702.946 1608.01 701.948 1622.97 672.269C1645.3 630.617 1596.54 584.477 1555.13 602.559ZM1342.14 851.095C1342.14 851.062 1342.15 851.03 1342.18 851.006C1342.2 850.983 1342.23 850.97 1342.26 850.97L1342.14 851.095ZM1442.28 815.679C1420.33 825.156 1395.76 828.398 1372.19 831.641C1339.15 833.511 1329.92 843.114 1329.67 849.972C1317.95 911.826 1287.15 988.643 1232.9 1020.44C1220.68 876.41 1120.54 715.666 959.547 727.388C998.206 672.892 1070.28 650.321 1135.13 656.057C1147.23 656.681 1159.32 651.817 1170.8 648.824C1196.05 642.477 1222.23 640.703 1248.11 643.587C1325.8 652.94 1461.23 731.753 1532.44 675.137C1532.31 734.122 1496.52 791.361 1442.28 815.679ZM1615.49 655.06C1614.24 677.008 1585.31 691.099 1565.49 680.998H1565.36C1564.61 680.624 1564.86 680.749 1565.24 680.873C1541.92 670.897 1527.58 636.728 1550.02 619.519C1576.83 598.319 1620.73 620.641 1615.49 655.06V655.06Z" fill="#452D34"/><path d="M1105.58 679.626C1113.56 684.614 1121.41 689.852 1129.02 695.339L1134.76 699.454L1137.38 701.449L1138.75 702.447C1138.87 702.572 1139.75 703.195 1139 702.697C1138.25 702.198 1139.25 702.946 1139.37 703.071L1150.35 711.8C1164.78 723.905 1178.4 736.944 1191.12 750.832C1197.48 757.691 1203.59 764.799 1209.58 772.157C1210.95 773.903 1212.45 775.649 1213.82 777.519C1214.6 778.379 1215.3 779.296 1215.94 780.263C1216.44 780.761 1215.82 780.013 1215.82 780.013L1216.31 780.761L1217.56 782.258C1220.43 785.999 1223.17 789.865 1225.92 793.606C1236.89 808.959 1247 824.903 1256.22 841.368C1265.41 857.905 1273.7 874.932 1281.04 892.372C1280.66 891.374 1280.91 892.247 1281.16 892.746C1281.42 893.264 1281.63 893.807 1281.78 894.367L1283.28 897.734C1284.4 900.852 1287.4 903.221 1290.89 902.099C1294.38 900.976 1296.62 897.734 1295.25 894.492C1287.91 876.465 1279.67 858.818 1270.56 841.617C1261.49 824.892 1251.54 808.658 1240.76 792.982C1229.63 777.046 1217.6 761.766 1204.72 747.216C1192.12 733.018 1178.58 719.686 1164.19 707.311C1149.61 694.702 1134.15 683.158 1117.92 672.768L1111.94 668.902C1111.23 668.467 1110.45 668.177 1109.63 668.049C1108.81 667.921 1107.98 667.957 1107.17 668.155C1106.37 668.352 1105.61 668.709 1104.95 669.202C1104.28 669.695 1103.72 670.316 1103.3 671.028C1102.88 671.741 1102.6 672.53 1102.49 673.35C1102.37 674.17 1102.42 675.004 1102.64 675.805C1102.85 676.605 1103.22 677.355 1103.72 678.011C1104.23 678.667 1104.86 679.216 1105.58 679.626V679.626Z" fill="white"/><path d="M824.369 1098.76C821.126 1103.62 817.635 1108.11 814.143 1112.72C808.905 1119.71 803.668 1126.82 798.68 1133.92C793.691 1141.03 789.576 1146.64 785.71 1153.38C783.941 1156.45 782.519 1159.72 781.47 1163.1C780.947 1165.32 780.613 1167.57 780.473 1169.84C780.224 1171.62 780.099 1173.41 780.099 1175.2C780.158 1179.85 780.659 1184.49 781.595 1189.04C783.422 1196.9 786.361 1204.46 790.324 1211.49C792.527 1215.37 795.073 1219.04 797.931 1222.46C802.959 1228.55 808.554 1234.15 814.642 1239.17C831.596 1253.62 850.432 1265.7 870.634 1275.09C893.33 1285.56 917.897 1293.3 943.087 1293.42L951.068 1293.17C955.184 1293.11 959.116 1291.45 962.042 1288.56C964.96 1285.65 966.617 1281.7 966.656 1277.58C966.407 1273.59 965.16 1269.35 962.042 1266.61C958.925 1263.87 955.183 1261.75 951.068 1261.99C943.368 1262.45 935.641 1262.16 927.998 1261.12L932.113 1261.75C917.304 1259.55 902.842 1255.44 889.09 1249.52L892.831 1251.02C878.077 1244.72 863.997 1236.95 850.806 1227.83C847.314 1225.58 844.072 1223.09 840.705 1220.59L843.947 1222.96C834.969 1216.1 826.239 1208.62 819.38 1199.64L821.875 1202.76C818.554 1198.4 815.828 1193.62 813.769 1188.54L815.39 1192.29C813.258 1187.43 811.79 1182.32 811.025 1177.07L811.649 1181.19C811.151 1177.42 811.151 1173.6 811.649 1169.84L811.025 1173.95C811.222 1172.46 811.599 1170.99 812.148 1169.59L810.527 1173.33C812.147 1169.85 814.066 1166.51 816.263 1163.35C819.131 1158.74 822.249 1154.38 825.366 1149.89C831.726 1141.03 838.336 1132.18 844.82 1123.45C846.94 1120.46 849.185 1117.59 851.18 1114.47C853.175 1111.35 853.799 1106.24 852.801 1102.5C851.685 1098.6 849.148 1095.26 845.693 1093.15C842.077 1091.27 837.587 1090.28 833.597 1091.65C829.757 1092.81 826.476 1095.34 824.369 1098.76V1098.76Z" fill="#EFDCC4"/><path d="M923.508 1209.25L905.8 1238.43C904.976 1239.87 904.749 1241.58 905.169 1243.19C905.588 1244.79 906.621 1246.17 908.045 1247.03C917.273 1253.27 928.372 1221.84 934.233 1215.48C940.094 1209.12 927.499 1202.26 923.508 1209.25V1209.25Z" fill="#452D34"/><path d="M882.231 1181.44L857.415 1213.49C856.293 1214.69 855.669 1216.27 855.669 1217.91C855.669 1219.56 856.293 1221.14 857.415 1222.34C859.66 1224.33 864.149 1225.08 866.269 1222.34L891.085 1190.29C896.822 1184.68 887.718 1175.57 882.231 1181.44Z" fill="#452D34"/><path d="M838.959 1146.64C830.853 1156.99 819.006 1175.82 814.018 1182.31C809.03 1188.79 817.136 1196.9 822.747 1191.16C826.211 1186.87 829.417 1182.37 832.349 1177.69C836.839 1171.21 845.942 1157.87 847.813 1155.5C853.424 1149.76 844.57 1140.91 838.959 1146.64Z" fill="#452D34"/><path d="M902.308 863.315C918.271 866.682 929.619 879.278 927.998 892.746C926.376 906.214 910.414 917.063 892.582 914.943C888.983 914.503 885.459 913.58 882.106 912.2C887.219 895.24 891.335 877.656 902.308 863.315Z" fill="#D13535"/><path d="M1070.35 1001.13C1080.25 990.59 1077.65 972.067 1064.55 959.762C1051.45 947.457 1032.8 946.029 1022.9 956.572C1013 967.115 1015.59 985.637 1028.7 997.943C1041.8 1010.25 1060.45 1011.68 1070.35 1001.13Z" fill="#D13535"/><path d="M992.595 886.884C977.007 891.124 960.546 893.244 945.457 899.105C922.012 909.83 929.869 947.116 955.682 947.366C964.412 947.366 963.414 934.022 954.809 934.895C953.438 934.77 955.807 935.145 954.934 934.895C953.709 934.637 952.502 934.304 951.318 933.897C951.817 933.773 952.315 934.272 951.567 933.897C950.377 933.354 949.249 932.685 948.2 931.902C949.198 932.9 948.574 932.152 948.2 931.902C947.826 931.653 945.457 929.533 944.334 926.54C944.334 927.413 944.584 927.413 944.459 926.789C943.461 923.422 943.461 923.796 943.711 920.18C943.835 921.178 943.586 921.053 943.711 920.429C943.894 919.133 944.272 917.871 944.833 916.688C943.586 918.559 945.955 914.568 946.205 914.194C946.454 913.82 946.828 913.197 946.08 914.444C946.83 913.343 947.757 912.374 948.824 911.575C947.203 912.573 951.567 909.954 952.315 909.705C963.788 906.213 982.12 902.347 995.962 898.856C1003.69 896.86 1000.45 884.639 992.595 886.884V886.884Z" fill="#452D34"/><path d="M1059.44 922.675C1066.12 922.675 1071.53 917.259 1071.53 910.578C1071.53 903.898 1066.12 898.482 1059.44 898.482C1052.76 898.482 1047.34 903.898 1047.34 910.578C1047.34 917.259 1052.76 922.675 1059.44 922.675Z" fill="#452D34"/><path d="M971.894 867.181C978.575 867.181 983.99 861.766 983.99 855.085C983.99 848.404 978.575 842.989 971.894 842.989C965.214 842.989 959.798 848.404 959.798 855.085C959.798 861.766 965.214 867.181 971.894 867.181Z" fill="#452D34"/><path d="M1107.7 903.719C1098.93 888.14 1086.47 874.951 1071.41 865.31C1064.55 861.071 1058.19 871.92 1065.17 876.035L1071.41 880.4C1071.53 880.524 1072.9 881.647 1071.78 880.649C1078.77 886.131 1085.02 892.504 1090.36 899.604C1092.75 902.931 1094.96 906.386 1096.97 909.955C1100.96 916.938 1111.81 910.703 1107.7 903.719V903.719Z" fill="#452D34"/><path d="M989.602 816.925C978.003 816.134 966.35 816.847 954.934 819.045C954.136 819.261 953.39 819.634 952.738 820.141C952.086 820.648 951.541 821.279 951.135 821.998C950.728 822.718 950.469 823.511 950.372 824.331C950.275 825.151 950.342 825.983 950.569 826.777C951.941 833.511 961.917 830.393 964.287 830.019C972.686 829.003 981.163 828.795 989.602 829.396C997.707 829.52 997.707 816.925 989.602 816.925V816.925Z" fill="#452D34"/><path d="M1608.76 1661.3C1607.76 1655.56 1606.51 1639.72 1601.28 1633.36C1602.02 1629.87 1600.28 1625.63 1595.42 1625.51C1411.98 1580.86 1214.19 1441.44 1081.26 1303.02C1079.14 1300.4 1074.65 1300.78 1072.41 1303.02C1062.8 1310.01 1100.21 1339.56 1105.33 1346.42C1242.5 1470.38 1408.23 1592.34 1590.3 1636.86C1606.26 1673.15 1585.94 1709.31 1572.84 1743.1C1563.62 1778.64 1534.43 1785.63 1501.64 1785.38C1352.37 1790.12 1199.35 1745.72 1091.61 1639.97C1092.36 1637.06 1093.11 1634.32 1093.85 1631.74C1096.1 1623.01 1082.51 1620.77 1081.51 1629.75C1062.3 1609.8 1044.86 1588.23 1029.38 1565.28C1026.64 1561.16 1024.02 1557.67 1018.66 1557.17C1010.68 1557.05 1010.43 1569.52 1018.66 1569.64C1035.22 1596.76 1054.99 1621.8 1077.52 1644.21C1062.43 1706.57 1078.77 1772.66 1037.74 1828.53C1033.62 1835.39 1044.35 1841.75 1048.46 1834.76C1090.11 1776.52 1074.77 1720.03 1088.24 1654.56C1175.41 1736.12 1298.49 1785.75 1417.09 1795.23C1460.73 1796.73 1551.64 1811.44 1575.46 1767.42C1584.57 1750.34 1589.93 1731.51 1597.78 1713.92C1605.64 1696.34 1610.13 1679.51 1608.76 1661.3Z" fill="#452D34"/><path d="M980.124 1109.61C957.054 1106.86 926.002 1097.14 907.421 1082.42C901.064 1077.48 895.327 1071.78 890.337 1065.46C885.778 1059.3 881.929 1052.65 878.864 1045.63C876.619 1041.27 872.38 1024.81 872.13 1020.19C867.391 980.537 879.363 942.876 894.702 905.715C910.04 868.553 934.732 826.029 959.298 794.603C962.541 788.243 975.011 781.384 969.025 773.778C966.656 771.658 962.416 771.034 960.171 773.778C904.553 843.861 817.759 987.396 879.986 1071.32C879.59 1071.88 879.334 1072.52 879.238 1073.19C876.582 1085.48 872.826 1097.5 868.015 1109.11L867.765 1109.48C821.126 1071.82 840.829 1071.2 799.053 1133.18C617.609 1064.96 419.952 948.738 300.236 794.354C298.116 790.737 294.126 790.737 291.382 792.608C255.467 790.987 228.407 817.175 205.96 841.741C192.866 855.334 176.28 868.054 170.669 886.884C160.817 927.039 195.235 980.412 211.946 1016.7C285.646 1158.99 427.31 1277.83 584.437 1300.4C574.835 1318.11 570.47 1338.19 565.732 1357.64C542.537 1466.01 529.318 1576.75 523.706 1687.49C523.208 1713.92 521.711 1740.86 527.323 1766.92C529.443 1774.53 541.539 1771.41 539.294 1763.56C528.57 1677.51 544.407 1585.23 553.386 1502.05C562.739 1439.45 570.47 1373.6 591.545 1313.75C594.663 1307.01 601.272 1298.41 594.164 1292.17C587.056 1285.94 578.576 1288.18 571.343 1285.69C399.251 1252.89 261.952 1113.97 196.856 956.469C185.882 930.281 169.546 895.863 193.739 872.044C222.421 844.734 248.359 804.205 292.255 804.579C399.75 948.364 622.098 1082.67 791.696 1143.78C738.946 1210.62 831.601 1263.87 885.349 1286.56C906.05 1294.92 928.496 1301.03 951.068 1299.53C959.049 1299.53 959.174 1287.06 951.068 1287.06C944.33 1287.54 937.561 1287.33 930.866 1286.44C915.32 1284.02 900.148 1279.62 885.723 1273.34C854.173 1259 806.286 1232.69 792.444 1202.51C790.664 1198.05 789.368 1193.41 788.578 1188.67C788.226 1185.69 788.184 1182.68 788.453 1179.69C788.896 1176.45 789.691 1173.28 790.823 1170.21C795.063 1161.98 800.176 1153.5 805.663 1144.9C806.066 1144.4 806.402 1143.86 806.66 1143.28C816.013 1128.56 826.488 1113.47 835.841 1098.88C867.142 1126.94 902.308 1151.13 940.967 1167.97C949.447 1170.34 986.484 1190.54 989.103 1178.07C989.523 1176.48 989.301 1174.79 988.484 1173.37C987.667 1171.94 986.321 1170.9 984.738 1170.46C972.912 1167.12 961.294 1163.08 949.946 1158.37C924.429 1147.39 900.247 1133.54 877.866 1117.09C880.735 1109.98 887.718 1094.64 890.087 1083.17C895.057 1088.14 900.439 1092.69 906.174 1096.76C931.988 1113.97 963.164 1121.08 993.717 1123.57C996.959 1123.82 1000.08 1120.46 999.952 1117.34C998.954 1107.98 986.609 1111.6 980.124 1109.61Z" fill="#452D34"/><path d="M957.179 1038.4C949.538 1038.36 942.031 1036.38 935.356 1032.66C909.791 1018.32 911.038 987.396 912.784 974.801C913.002 972.929 913.752 971.158 914.945 969.699C916.139 968.24 917.726 967.154 919.518 966.57C921.284 965.964 923.182 965.853 925.007 966.248C926.831 966.644 928.513 967.532 929.869 968.815L934.857 973.679C949.149 987.521 966.962 997.183 986.36 1001.61L993.343 1003.23C995.167 1003.64 996.844 1004.54 998.187 1005.84C999.53 1007.14 1000.49 1008.78 1000.95 1010.59C1001.4 1012.4 1001.35 1014.3 1000.8 1016.08C1000.25 1017.86 999.223 1019.45 997.832 1020.69C990.849 1026.93 975.51 1038.4 957.179 1038.4ZM925.753 983.904C925.255 996.25 927.624 1012.59 942.09 1020.69C956.555 1028.8 973.016 1022.31 983.117 1014.96C961.545 1009.97 941.723 999.241 925.753 983.904Z" fill="#452D34"/><path d="M1622.48 1837.26C1596.54 1843.37 1554.64 1818.8 1528.32 1795.6C1520.72 1788.87 1521.47 1778.89 1522.21 1768.79C1525.83 1719.41 1540.55 1680 1572.47 1646.96C1577.71 1641.72 1581.2 1634.99 1588.31 1633.12C1660.64 1613.41 1720.87 1641.97 1744.44 1657.06C1777.98 1678.51 1778.36 1703.95 1773.37 1714.92L1765.01 1725.27C1783.09 1753.21 1764.26 1789.74 1752.79 1819.17C1741.32 1848.6 1709.77 1878.66 1673.36 1866.81C1545.03 1824.79 1640.06 1697.84 1667.74 1715.54" fill="#D13535"/><path d="M1748.18 1651.2C1730.47 1639.97 1666.62 1604.81 1586.56 1626.51C1579.2 1628.5 1574.84 1633.61 1571.1 1638.23L1567.61 1642.22C1535.93 1675.02 1519.22 1715.05 1515.35 1768.29C1514.61 1778.77 1513.61 1791.74 1523.71 1800.72C1545.28 1819.8 1589.55 1849.85 1621.35 1844.49L1621.73 1844.74L1622.6 1845.61L1623.85 1846.86L1624.84 1847.86L1626.22 1849.1L1627.34 1849.98L1628.84 1851.22L1629.83 1852.1L1631.45 1853.34L1632.58 1854.22L1634.45 1855.59L1635.44 1856.21L1638.44 1858.33L1638.94 1858.58L1641.68 1860.2L1642.93 1860.95L1645.05 1862.2L1646.54 1862.94L1648.66 1864.07L1650.16 1864.82L1652.4 1865.94L1654.03 1866.69L1656.4 1867.68L1658.02 1868.43L1660.51 1869.43L1662.26 1870.05L1665.12 1871.18L1666.62 1871.8L1671.11 1873.3C1677.15 1875.26 1683.46 1876.27 1689.82 1876.29C1702.41 1876.29 1714.76 1872.17 1726.35 1864.07C1741.2 1853.42 1752.64 1838.69 1759.28 1821.67C1760.52 1818.18 1762.02 1814.68 1763.52 1810.94C1773.99 1785.13 1786.96 1753.33 1773.62 1726.64C1776.13 1724.07 1778.15 1721.07 1779.6 1717.79C1785.34 1705.32 1785.96 1675.51 1748.18 1651.2ZM1767.51 1711.3L1760.27 1720.28C1755.05 1723.69 1749.2 1726.02 1743.06 1727.14C1720.87 1731.76 1694.31 1726.27 1687.95 1720.53C1687.29 1719.91 1686.52 1719.43 1685.68 1719.11C1684.83 1718.8 1683.94 1718.66 1683.04 1718.71C1682.14 1718.76 1681.26 1718.99 1680.45 1719.39C1679.64 1719.79 1678.93 1720.35 1678.34 1721.03C1677.73 1721.68 1677.25 1722.45 1676.94 1723.29C1676.62 1724.13 1676.48 1725.02 1676.52 1725.91C1676.55 1726.8 1676.76 1727.68 1677.14 1728.49C1677.52 1729.3 1678.05 1730.03 1678.72 1730.63C1686.82 1737.99 1706.03 1742.48 1725.11 1742.48C1732.05 1742.51 1738.98 1741.88 1745.81 1740.61C1751.57 1739.44 1757.14 1737.51 1762.39 1734.87C1771.12 1755.82 1760.4 1782.26 1750.8 1805.83C1749.3 1809.57 1747.8 1813.06 1746.43 1816.68C1737.58 1839.63 1710.39 1871.67 1675.47 1860.33C1640.56 1848.98 1618.48 1828.28 1615.12 1801.84C1611.13 1769.42 1634.2 1735.5 1651.66 1724.52L1653.4 1723.4L1653.9 1723.15L1655.27 1722.53L1655.65 1722.28L1657.27 1721.65H1657.64L1658.76 1721.28H1659.26L1660.51 1721.03H1663.25L1664.13 1721.41C1664.88 1722.02 1665.75 1722.46 1666.68 1722.71C1667.61 1722.96 1668.59 1723.01 1669.54 1722.86C1670.5 1722.71 1671.41 1722.36 1672.21 1721.83C1673.02 1721.3 1673.71 1720.6 1674.23 1719.79C1674.75 1718.98 1675.1 1718.06 1675.24 1717.11C1675.39 1716.15 1675.33 1715.18 1675.07 1714.25C1674.81 1713.32 1674.35 1712.45 1673.74 1711.71C1673.12 1710.96 1672.35 1710.36 1671.48 1709.93C1664.38 1705.32 1654.77 1706.44 1644.3 1713.05C1633.82 1719.66 1620.98 1733.88 1612.87 1749.34C1606.26 1762.06 1598.78 1781.76 1601.53 1803.71C1601.65 1804.33 1601.65 1804.96 1601.77 1805.58C1601.89 1805.77 1601.94 1805.99 1601.9 1806.2C1602.02 1806.58 1602.02 1807.08 1602.15 1807.58C1602.27 1808.07 1602.27 1807.95 1602.27 1808.2L1602.65 1809.95V1810.2C1602.77 1810.82 1603.02 1811.57 1603.15 1812.19C1603.2 1812.4 1603.24 1812.6 1603.27 1812.81L1603.65 1814.31C1603.77 1814.43 1603.77 1814.68 1603.89 1814.93L1604.39 1816.55C1604.39 1816.68 1604.52 1816.8 1604.52 1817.05L1605.27 1819.05C1605.27 1819.3 1605.39 1819.42 1605.52 1819.67C1605.64 1819.92 1605.89 1820.67 1606.01 1821.17L1606.39 1821.92C1606.54 1822.48 1606.75 1823.02 1607.01 1823.54C1607.14 1823.66 1607.14 1823.91 1607.26 1824.04L1608.26 1826.16C1608.39 1826.3 1608.47 1826.47 1608.51 1826.66L1609.38 1828.28L1609.76 1829.03L1610.75 1830.65C1610.88 1830.77 1610.88 1831.02 1611 1831.15C1611.13 1831.27 1611.13 1831.27 1611.13 1831.39C1588.56 1830.15 1556.26 1811.32 1532.81 1790.62C1528.2 1786.38 1528.32 1779.89 1529.07 1769.42C1532.69 1719.53 1548.15 1682.25 1577.46 1651.82C1578.93 1650.33 1580.3 1648.75 1581.57 1647.08C1584.94 1643.09 1587.06 1640.72 1590.18 1639.85C1664.75 1619.65 1724.23 1652.44 1740.7 1662.92C1769.88 1681.38 1771.12 1702.2 1767.51 1711.3Z" fill="#452D34"/><path d="M1811.15 1409.52C1815.89 1371.61 1812.78 1330.21 1789.46 1298.53C1785.34 1291.67 1774.49 1297.91 1778.61 1304.77C1790.58 1320.98 1796.44 1337.82 1799.31 1358.02C1801.43 1372.73 1800.93 1393.06 1798.68 1409.52C1798.56 1417.5 1811.03 1417.63 1811.15 1409.52V1409.52Z" fill="#CE9C5C"/><path d="M1767.01 1420.12C1735.96 1410.52 1693.56 1405.4 1673.11 1436.58C1668.87 1445.93 1681.96 1449.55 1685.45 1440.57C1687.57 1437.2 1696.8 1430.6 1700.79 1429.22C1712.14 1424.36 1724.98 1424.36 1735.83 1425.86C1744.56 1425.23 1768.63 1438.45 1771.37 1427.85C1771.77 1426.25 1771.53 1424.56 1770.72 1423.12C1769.91 1421.69 1768.58 1420.61 1767.01 1420.12V1420.12Z" fill="#CE9C5C"/><path d="M1852.18 1456.66C1860.41 1454.83 1868.64 1453.33 1876.87 1452.17C1893.65 1449.98 1910.6 1449.27 1927.5 1450.05C1934.74 1450.38 1941.97 1451 1949.2 1451.92C1957.18 1452.17 1957.31 1439.57 1949.2 1439.45C1936.86 1436.83 1839.84 1434.46 1844.57 1452.29C1845.04 1453.86 1846.09 1455.18 1847.51 1456C1848.92 1456.81 1850.6 1457.05 1852.18 1456.66V1456.66Z" fill="#CE9C5C"/><path d="M1845.95 1416.88C1846.43 1414.43 1847.18 1412.05 1848.19 1409.77C1848.44 1408.9 1848.07 1409.89 1847.94 1410.14C1849.33 1407.12 1851 1404.24 1852.93 1401.54C1854.8 1399.05 1863.4 1392.69 1857.79 1387.57C1846.69 1379.72 1835.84 1405.03 1833.97 1413.51C1832.1 1421.99 1843.83 1424.61 1845.95 1416.88V1416.88Z" fill="#CE9C5C"/><path d="M1863.03 1480.35C1862.23 1482.07 1860.8 1483.41 1859.04 1484.09C1859.71 1483.84 1859.46 1483.84 1858.29 1484.09H1857.67C1858.92 1484.72 1860.41 1485.09 1861.78 1485.71C1869.43 1489.07 1876.67 1493.3 1883.36 1498.31C1888.72 1505.04 1899.19 1496.31 1892.96 1490.08C1882.61 1482.22 1870.89 1474.24 1857.92 1471.75C1842.08 1474.24 1856.3 1494.07 1863.03 1480.48V1480.35Z" fill="#CE9C5C"/><path d="M1762.39 1392.44C1757.16 1386.08 1743.44 1361.63 1734.21 1369.37C1727.85 1377.22 1740.45 1382.46 1743.94 1388.32L1746.68 1391.56C1747.31 1392.31 1746.81 1391.94 1746.56 1391.44C1750.17 1395.55 1753.29 1404.66 1760.15 1400.92C1762.89 1399.17 1764.27 1395.3 1762.39 1392.44V1392.44Z" fill="#CE9C5C"/><path d="M1776.24 1296.29C1773.49 1296.27 1770.79 1295.58 1768.38 1294.28C1765.96 1292.97 1763.91 1291.09 1762.39 1288.81C1760.95 1286.58 1760.13 1284 1760.02 1281.35C1759.91 1278.69 1760.51 1276.06 1761.77 1273.72C1762.69 1271.88 1763.96 1270.24 1765.51 1268.9C1767.07 1267.55 1768.87 1266.53 1770.82 1265.88C1772.77 1265.24 1774.83 1264.99 1776.88 1265.14C1778.93 1265.29 1780.93 1265.85 1782.76 1266.78C1784.59 1267.71 1786.22 1268.99 1787.56 1270.55C1788.89 1272.11 1789.91 1273.92 1790.54 1275.88C1791.18 1277.83 1791.42 1279.89 1791.25 1281.94C1791.09 1283.99 1790.52 1285.98 1789.58 1287.81C1788.5 1290.21 1786.77 1292.26 1784.59 1293.73C1782.41 1295.21 1779.86 1296.05 1777.23 1296.16L1776.24 1296.29ZM1775.74 1278.95C1775.38 1278.95 1775.04 1279.04 1774.73 1279.22C1774.42 1279.39 1774.17 1279.65 1773.99 1279.95V1279.95C1773.62 1280.7 1773.74 1280.95 1773.87 1281.2C1774.16 1281.58 1774.54 1281.89 1774.97 1282.1C1775.4 1282.32 1775.88 1282.44 1776.36 1282.45C1776.61 1282.32 1776.86 1282.32 1777.23 1281.57C1777.46 1281.12 1777.51 1280.6 1777.38 1280.12C1777.24 1279.63 1776.92 1279.22 1776.48 1278.95H1775.74Z" fill="#CE9C5C"/><path d="M1873.01 1390.81C1870.26 1390.8 1867.56 1390.11 1865.15 1388.8C1862.74 1387.5 1860.68 1385.62 1859.16 1383.33C1857.72 1381.13 1856.9 1378.57 1856.79 1375.94C1856.68 1373.3 1857.28 1370.69 1858.54 1368.37C1859.67 1365.97 1861.43 1363.92 1863.62 1362.43C1865.81 1360.93 1868.36 1360.06 1871.01 1359.89C1873.9 1359.74 1876.78 1360.36 1879.37 1361.67C1881.95 1362.98 1884.14 1364.95 1885.73 1367.37C1887.17 1369.58 1888 1372.13 1888.11 1374.77C1888.21 1377.4 1887.61 1380.02 1886.35 1382.33C1885.23 1384.72 1883.49 1386.76 1881.33 1388.25C1879.16 1389.74 1876.63 1390.62 1874 1390.81H1873.01ZM1871.88 1373.61H1871.76C1871.51 1373.61 1871.26 1373.61 1870.89 1374.48H1870.76C1870.39 1375.23 1870.51 1375.48 1870.64 1375.73C1870.93 1376.11 1871.31 1376.41 1871.74 1376.63C1872.18 1376.85 1872.65 1376.96 1873.13 1376.97C1873.38 1376.97 1873.63 1376.97 1874 1376.1H1874.13C1874.5 1375.23 1874.38 1374.98 1874.25 1374.85C1873.98 1374.47 1873.63 1374.17 1873.22 1373.95C1872.81 1373.73 1872.35 1373.61 1871.88 1373.61V1373.61Z" fill="#CE9C5C"/><path d="M1662.26 1720.91L1801.68 1440.2C1796.81 1449.8 1802.42 1447.93 1807.04 1450.17C1809.2 1451.32 1810.84 1453.26 1811.61 1455.58C1812.37 1457.91 1812.21 1460.44 1811.15 1462.64L1680.34 1722.9L1662.26 1720.91Z" fill="#CE9C5C"/><path d="M1861.91 1503.05L1840.71 1472C1854.3 1467.51 1850.06 1458.15 1838.59 1454.79C1842.58 1448.93 1846.57 1442.94 1850.44 1436.95C1854.3 1430.97 1848.56 1426.11 1843.45 1427.85C1838.34 1429.6 1835.22 1430.84 1831.23 1432.47C1829.86 1425.36 1828.61 1418.12 1827.49 1411.02C1820.51 1397.05 1810.41 1418 1804.92 1423.36C1783.97 1396.43 1768.63 1392.44 1776.98 1432.59C1768.5 1433.59 1760.15 1435.83 1751.79 1437.33C1745.31 1439.07 1746.31 1448.68 1752.79 1449.8C1753.49 1450.34 1754.05 1451.04 1754.42 1451.85C1754.79 1452.65 1754.96 1453.53 1754.91 1454.41H1755.04C1754.91 1454.79 1754.91 1455.16 1754.79 1455.54C1754.66 1455.91 1754.29 1456.53 1754.66 1456.03C1751.92 1461.52 1734.34 1463.89 1738.7 1474.49C1742.57 1480.6 1749.05 1475.49 1754.16 1474.49C1758.65 1473.35 1763.25 1472.76 1767.88 1472.74C1763.77 1477.98 1759.53 1482.85 1755.16 1487.71C1754.18 1488.67 1753.54 1489.94 1753.35 1491.3C1753.16 1492.67 1753.43 1494.06 1754.11 1495.26C1754.79 1496.46 1755.86 1497.39 1757.13 1497.92C1758.4 1498.45 1759.82 1498.54 1761.15 1498.18C1768.2 1496.43 1775.45 1495.59 1782.72 1495.69C1785.22 1503.42 1793.32 1538.71 1804.29 1521.38C1806.26 1511.38 1809.57 1501.68 1814.15 1492.57L1853.43 1511.78C1858.67 1514.77 1865.28 1508.41 1861.91 1503.05ZM1802.67 1426.23L1802.17 1426.48L1802.67 1426.23ZM1754.29 1456.53C1754.21 1456.78 1754.08 1456.91 1753.91 1456.91L1754.29 1456.53ZM1782.1 1493.32C1782.14 1493.37 1782.18 1493.43 1782.2 1493.5C1782.22 1493.56 1782.23 1493.63 1782.22 1493.7L1782.1 1493.32Z" fill="#EFDCC4"/><path d="M1754.91 1454.54C1754.54 1455.53 1754.91 1454.91 1754.91 1454.54V1454.54Z" fill="#CE9C5C"/><path d="M1815.39 1507.16L1818.26 1508.91C1818.51 1509.03 1819.76 1509.91 1818.51 1509.03C1820.32 1510.51 1821.95 1512.18 1823.37 1514.02C1822.88 1513.27 1822.88 1513.27 1823.25 1513.77C1824.73 1515.86 1826.02 1518.07 1827.12 1520.38C1827.36 1520.88 1827.74 1521.5 1827.24 1520.63C1828.74 1523.5 1830.23 1530.98 1830.36 1532.35C1833.23 1540.09 1825.74 1557.67 1836.97 1559.04C1848.81 1558.54 1842.33 1527.12 1840.08 1519.51C1836.84 1510.03 1830.73 1501.18 1821.75 1496.44C1814.77 1492.32 1808.41 1503.17 1815.39 1507.16Z" fill="#CE9C5C"/><path d="M1736.33 1480.23C1724.24 1487.21 1710.52 1492.32 1700.92 1502.67C1695.18 1508.41 1704.03 1517.26 1709.64 1511.53C1711.18 1509.82 1712.85 1508.24 1714.63 1506.79C1720.99 1502.17 1733.84 1495.82 1742.57 1491.08C1751.3 1486.34 1743.31 1476.24 1736.33 1480.23Z" fill="#CE9C5C"/><path d="M1607.51 1828.28L1594.04 1855.34C1593.49 1856.43 1593.17 1857.62 1593.11 1858.83C1593.04 1860.05 1593.23 1861.27 1593.67 1862.41C1594.1 1863.55 1594.77 1864.59 1595.63 1865.45C1596.49 1866.32 1597.52 1866.99 1598.66 1867.43V1867.43C1600.97 1868.31 1603.53 1868.3 1605.83 1867.4C1608.13 1866.51 1610.02 1864.78 1611.13 1862.57L1620.23 1844.36L1607.51 1828.28Z" fill="#CE9C5C"/><path d="M97.7169 801.462C97.0933 828.149 129.891 863.939 158.198 884.889C166.304 890.875 175.906 888.007 185.633 885.139C233.146 871.296 268.562 848.725 294.126 810.441C298.241 804.33 303.978 799.467 304.477 791.984C308.467 717.162 267.938 664.287 248.235 644.459C220.301 616.151 195.236 621.14 185.633 628.248L177.278 638.598C146.102 626.876 114.427 652.939 87.99 670.273C61.5526 687.607 38.8565 724.894 58.0609 757.94C126.149 874.663 230.278 755.072 207.083 731.628" fill="#D13535"/><path d="M190.746 704.816L280.907 404.653C277.79 415.003 275.046 409.766 270.183 408.394C267.818 407.694 265.273 407.957 263.101 409.125C260.929 410.293 259.306 412.271 258.585 414.629L176.281 694.091L190.746 704.816Z" fill="#CE9C5C"/><path d="M163.186 802.585L148.845 849.598C148.498 850.775 147.909 851.867 147.118 852.804C146.326 853.742 145.348 854.504 144.245 855.044C143.143 855.583 141.941 855.887 140.715 855.937C139.489 855.988 138.266 855.782 137.123 855.334V855.334C134.837 854.388 132.985 852.627 131.925 850.391C130.865 848.156 130.673 845.607 131.387 843.238L144.73 800.963L163.186 802.585Z" fill="#CE9C5C"/><path d="M321.811 400.288C330.789 383.827 298.491 388.94 290.011 390.187C294.126 355.644 287.392 361.006 264.571 378.839C261.454 373.726 260.207 363.625 252.724 364.249C250.48 364.498 247.861 366.244 247.487 368.738C246.24 375.846 245.117 382.954 243.87 390.063C233.271 384.7 223.793 388.691 230.652 401.286C222.92 404.528 187.878 406.274 189.499 415.378C188.003 423.857 227.783 430.093 236.014 434.333C233.242 444.025 229.084 453.265 223.668 461.768C219.428 482.344 249.607 461.892 256.84 458.026C262.217 462.858 266.915 468.395 270.807 474.487C273.924 479.85 282.529 477.48 282.404 471.245C282.279 465.01 282.903 458.151 283.402 451.542C288.919 456.637 293.297 462.842 296.246 469.749C299.114 475.236 308.093 472.742 307.968 466.631C307.844 460.521 304.227 454.659 304.352 448.674C303.978 450.669 304.601 447.551 304.975 447.302C304.975 447.318 304.972 447.334 304.966 447.35C304.96 447.365 304.951 447.378 304.939 447.39C304.927 447.402 304.914 447.411 304.898 447.417C304.883 447.423 304.867 447.427 304.851 447.427C304.917 447.427 304.98 447.4 305.027 447.353C305.074 447.307 305.1 447.243 305.1 447.177C305.474 446.429 305.35 446.803 305.225 447.052C305.779 446.376 306.487 445.842 307.29 445.495C308.093 445.148 308.966 444.998 309.839 445.057C308.966 444.808 309.59 444.932 310.213 445.057H310.088C315.451 448.549 322.683 442.438 319.192 436.702C315.7 430.966 309.59 422.61 304.103 416.001C310.461 411.301 316.387 406.042 321.811 400.288V400.288ZM307.719 445.307H307.844C307.47 445.556 306.721 445.556 307.719 445.307V445.307Z" fill="#EFDCC4"/><path d="M304.976 447.302L305.225 447.053L304.976 447.302Z" fill="#CE9C5C"/><path d="M304.851 383.204C306.098 381.333 307.469 379.588 308.716 377.842C309.963 376.096 309.963 376.345 309.09 377.468C318.421 365.062 329.272 353.876 341.389 344.172C341.389 344.172 342.761 343.049 342.012 343.548C341.264 344.047 342.761 343.049 342.636 343.174C350.766 336.932 359.648 331.737 369.073 327.711C375.833 324.972 382.852 322.925 390.024 321.6C393.266 320.977 395.386 316.861 394.388 313.868C393.897 312.327 392.837 311.03 391.424 310.242C390.011 309.454 388.351 309.235 386.781 309.628C356.603 314.991 330.664 333.696 310.587 356.143C304.726 362.752 299.239 369.736 294.001 376.844C288.764 383.952 300.735 390.063 304.851 383.204V383.204Z" fill="#CE9C5C"/><path d="M313.83 424.606C323.183 429.594 335.279 436.453 342.387 441.94C347.228 445.66 351.622 449.928 355.481 454.659C358.02 458.192 360.232 461.949 362.09 465.883C364.797 472.033 365.912 478.767 365.333 485.461C362.215 493.817 374.187 498.929 377.179 490.2C379.549 476.857 376.057 463.389 368.824 452.041C357.352 434.208 338.396 423.608 320.19 413.881C313.206 409.766 306.846 420.615 313.83 424.606Z" fill="#CE9C5C"/><path d="M228.033 432.088C206.085 426.227 186.631 442.314 173.786 458.276C171.542 460.77 171.167 464.761 173.661 467.13C176.156 469.499 180.271 469.749 182.515 467.13C186.755 462.017 193.739 454.66 197.729 451.667C200.481 449.534 203.449 447.695 206.583 446.18L207.207 445.93C213.193 443.686 216.31 442.937 222.296 443.561C229.404 447.302 238.508 437.45 228.033 432.088V432.088Z" fill="#CE9C5C"/><path d="M243.496 375.721C224.299 347.366 200.284 322.591 172.54 302.52C169.921 300.525 165.431 301.896 164.06 304.765C160.069 310.75 170.295 315.863 171.916 317.36C191.004 332.186 208.141 349.365 222.92 368.488C227.285 371.606 232.148 388.566 241.252 384.201C243.87 382.455 245.492 378.589 243.496 375.721V375.721Z" fill="#CE9C5C"/><path d="M275.42 363.376C279.785 356.018 289.262 330.08 276.044 327.835C267.689 328.334 270.557 337.562 269.684 343.174C269.767 342.342 269.767 342.218 269.684 342.799C269.168 346.276 268.204 349.672 266.816 352.901C259.458 362.004 267.938 371.606 275.42 363.376V363.376Z" fill="#CE9C5C"/><path d="M289.262 481.97C291.382 488.454 293.627 494.939 295.747 501.299C296.745 504.416 297.618 507.409 298.366 510.527C298.49 511.275 298.74 512.023 298.865 512.772C298.989 513.52 298.989 513.769 299.114 514.268C299.239 514.767 298.989 513.395 299.114 514.393C299.239 515.39 299.363 517.635 299.363 519.381C299.363 521.035 300.02 522.621 301.19 523.79C302.359 524.959 303.945 525.616 305.599 525.616C307.242 525.584 308.81 524.917 309.972 523.755C311.135 522.592 311.802 521.025 311.834 519.381C311.959 512.273 310.088 505.289 307.968 498.555L301.234 478.727C299.114 470.996 287.018 474.238 289.262 481.97V481.97Z" fill="#CE9C5C"/><path d="M219.553 398.044C226.536 383.079 189.749 380.086 180.396 378.59C169.297 380.71 173.911 392.681 184.511 391.434C193.187 392.73 201.683 395.032 209.826 398.293C211.447 399.166 210.824 398.044 208.08 394.677L208.953 391.559C204.339 398.418 215.313 405.277 219.553 398.044V398.044Z" fill="#CE9C5C"/><path d="M345.629 408.518C348.996 407.77 352.487 407.022 355.979 406.523H356.727C361.901 405.918 367.106 405.627 372.315 405.65C380.296 405.775 380.296 393.18 372.315 393.18C364.334 393.18 335.528 391.933 338.022 404.278C338.486 405.838 339.541 407.154 340.962 407.947C342.384 408.739 344.058 408.944 345.629 408.518Z" fill="#CE9C5C"/><path d="M373.563 526.738C372.042 526.776 370.526 526.566 369.073 526.115C365.393 524.72 362.377 521.984 360.63 518.457C358.884 514.93 358.536 510.873 359.657 507.1C360.777 503.327 363.284 500.118 366.673 498.117C370.062 496.116 374.082 495.47 377.927 496.311C379.886 496.882 381.711 497.837 383.295 499.122C384.88 500.407 386.192 501.995 387.156 503.793C388.156 505.58 388.783 507.551 388.998 509.588C389.212 511.625 389.01 513.684 388.403 515.64C387.851 517.607 386.903 519.441 385.616 521.028C384.33 522.615 382.731 523.922 380.92 524.868C378.663 526.098 376.133 526.741 373.563 526.738V526.738ZM373.563 509.405C373.17 509.364 372.776 509.468 372.454 509.698C372.133 509.928 371.906 510.267 371.817 510.652C371.656 511.115 371.684 511.623 371.893 512.066C372.103 512.509 372.479 512.852 372.939 513.021C373.451 513.138 373.989 513.049 374.436 512.772C374.816 512.529 375.119 512.183 375.309 511.774V511.774C375.401 511.273 375.358 510.756 375.184 510.278C374.889 509.897 374.503 509.597 374.062 509.405H373.563Z" fill="#CE9C5C"/><path d="M408.73 321.6C407.255 321.567 405.79 321.358 404.365 320.977C400.419 319.793 397.102 317.095 395.139 313.473C393.177 309.851 392.727 305.6 393.89 301.647C394.461 299.689 395.416 297.864 396.701 296.279C397.986 294.695 399.574 293.383 401.372 292.419C404.987 290.423 409.243 289.93 413.219 291.048C417.165 292.231 420.482 294.929 422.445 298.551C424.407 302.173 424.857 306.425 423.694 310.377V310.377C422.75 313.615 420.781 316.459 418.082 318.482C415.384 320.506 412.102 321.6 408.73 321.6ZM408.73 304.141L407.857 304.391C407.445 304.653 407.137 305.05 406.984 305.513C406.866 305.976 406.929 306.466 407.161 306.883C407.393 307.301 407.776 307.614 408.231 307.758C408.71 307.881 409.218 307.821 409.656 307.591C410.094 307.36 410.43 306.975 410.6 306.511V306.511C410.673 306.279 410.688 306.033 410.645 305.794C410.602 305.555 410.501 305.33 410.351 305.139C410.146 304.728 409.788 304.415 409.353 304.266L408.73 304.141Z" fill="#CE9C5C"/><path d="M308.966 554.048C307.489 554.034 306.022 553.824 304.601 553.425C301.62 552.598 298.956 550.895 296.953 548.538C294.95 546.181 293.7 543.278 293.364 540.203C293.028 537.128 293.622 534.023 295.07 531.289C296.517 528.555 298.751 526.318 301.483 524.867C305.092 522.902 309.331 522.442 313.278 523.586C317.225 524.731 320.56 527.387 322.558 530.978C324.555 534.593 325.047 538.849 323.93 542.825C322.744 546.796 320.061 550.149 316.448 552.178C314.146 553.408 311.576 554.051 308.966 554.048V554.048ZM308.966 536.59C308.571 536.62 308.195 536.766 307.884 537.01C307.573 537.254 307.342 537.586 307.22 537.961C307.144 538.19 307.117 538.433 307.139 538.673C307.162 538.913 307.234 539.146 307.351 539.357C307.468 539.568 307.628 539.752 307.82 539.898C308.012 540.045 308.232 540.149 308.467 540.206C308.69 540.287 308.929 540.318 309.166 540.297C309.404 540.275 309.633 540.202 309.838 540.081C310.055 539.966 310.244 539.806 310.394 539.613C310.545 539.42 310.653 539.197 310.711 538.959V538.959C310.807 538.5 310.763 538.022 310.587 537.587C310.471 537.371 310.312 537.182 310.118 537.031C309.925 536.881 309.702 536.773 309.464 536.714L308.966 536.59Z" fill="#CE9C5C"/><path d="M273.924 324.344C271.669 324.339 269.438 323.884 267.361 323.006C265.284 322.128 263.403 320.845 261.828 319.231C260.034 317.284 258.789 314.896 258.219 312.311C257.65 309.726 257.776 307.036 258.585 304.516C259.245 301.957 260.594 299.627 262.485 297.781C264.375 295.934 266.736 294.64 269.31 294.041C272.123 293.361 275.065 293.43 277.843 294.239C280.621 295.049 283.139 296.571 285.147 298.655C286.964 300.588 288.224 302.976 288.795 305.566C289.366 308.156 289.226 310.853 288.39 313.37C287.752 315.92 286.426 318.245 284.557 320.092C282.688 321.94 280.347 323.238 277.79 323.845C276.531 324.194 275.23 324.362 273.924 324.344V324.344ZM273.051 307.259H272.552C272.303 307.259 272.053 307.384 271.804 308.257H271.679C271.43 309.13 271.679 309.379 271.804 309.504C272.15 309.827 272.568 310.063 273.023 310.193C273.479 310.323 273.958 310.344 274.423 310.252C274.672 310.252 275.046 310.128 275.296 309.255C275.545 308.382 275.296 308.132 275.171 308.008C274.576 307.513 273.824 307.248 273.051 307.259V307.259Z" fill="#CE9C5C"/><path d="M253.223 639.596C221.548 607.672 192.492 614.655 181.518 622.761C178.638 624.894 176.148 627.51 174.161 630.493C145.229 623.135 116.921 642.34 93.8509 658.052L84.2487 664.537C69.0348 674.513 56.315 689.478 49.5809 705.565C41.3505 725.143 42.2234 744.472 52.1997 761.432L54.5691 765.423L55.3173 766.67L56.9385 769.164C57.2411 769.642 57.5743 770.1 57.9361 770.535C58.4349 771.284 58.8091 772.032 59.3079 772.655L60.4302 774.152L61.802 776.147C62.0928 776.633 62.4267 777.092 62.7996 777.519C63.2262 778.124 63.6841 778.707 64.1713 779.265L65.2937 780.761L66.6654 782.382L67.7878 783.754L69.0348 785.251L70.2818 786.498L71.5289 787.994L72.7759 789.241L74.023 790.488L75.1453 791.735L76.5171 792.858L77.6394 793.98L79.0111 795.227L80.1335 796.225L81.3805 797.222L82.6276 798.22L83.8746 799.217L85.1216 800.215L86.3687 801.088L87.6157 801.961L88.8628 802.834L90.1098 803.582L90.858 804.081C92.3545 836.379 130.888 873.292 154.083 890.376C158.518 893.648 163.912 895.358 169.422 895.24C175.782 895.24 182.017 893.369 187.504 891.748C238.757 876.784 274.547 852.092 299.862 814.307C300.833 812.812 301.917 811.395 303.105 810.067C306.721 805.328 310.836 799.966 311.335 792.359C315.7 709.555 267.938 654.56 253.223 639.596ZM297.618 791.611C297.368 794.853 295.498 797.472 292.255 801.587L288.514 806.575C264.945 841.617 231.649 864.562 183.638 878.654C173.662 881.522 167.302 883.019 162.189 879.278C137.123 860.697 111.808 833.137 105.823 811.314H106.197L106.945 811.563L108.317 811.937L109.19 812.187L110.561 812.686H111.434L112.931 813.06H113.554L115.674 813.558H115.799L117.794 813.933H135.003C157.076 811.937 174.784 800.589 185.758 791.361C199.101 780.262 209.951 765.921 214.689 753.077C219.428 740.232 217.932 731.877 212.071 725.891C210.797 724.585 209.057 723.838 207.233 723.815C205.409 723.791 203.65 724.493 202.344 725.767C201.037 727.04 200.29 728.78 200.267 730.604C200.243 732.428 200.946 734.187 202.219 735.494C204.214 737.364 203.965 742.352 201.845 748.338C194.612 767.667 166.304 797.347 133.756 800.215H119.54L118.168 799.841H117.295L115.799 799.467H114.926L113.554 799.093L112.681 798.843L111.31 798.345L110.437 798.095L109.065 797.596L108.317 797.222L106.82 796.599L106.072 796.349L104.576 795.601L103.952 795.352L102.456 794.603L101.832 794.229L100.211 793.356L99.8368 793.107L98.0909 792.109C98.0909 791.985 97.9662 791.985 97.8415 791.985C95.2227 790.239 92.6039 788.368 90.1098 786.373L89.8604 786.123L88.364 784.876L87.8652 784.378L86.4934 783.131L85.7452 782.507L84.6228 781.385L83.7499 780.512L82.6276 779.39C82.3688 779.068 82.0762 778.775 81.7547 778.517L80.6323 777.27C80.3736 776.948 80.0809 776.655 79.7594 776.397L78.7618 775.15L77.8888 774.152L76.7665 772.905L75.8935 771.782L74.8959 770.535C74.6348 770.1 74.3431 769.683 74.023 769.288L73.0254 768.041L72.1524 766.67L71.1548 765.423L70.1571 764.051L69.4089 762.804L68.2866 761.183L67.5384 760.06L66.416 758.19C66.1805 757.875 65.9719 757.542 65.7925 757.192C65.169 756.319 64.6702 755.322 64.0466 754.324C45.4657 722.524 71.1548 689.228 91.731 675.76L101.458 669.151C122.533 654.81 146.102 638.848 168.299 642.963C166.888 648.673 166.218 654.541 166.304 660.422C166.554 684.864 177.777 715.042 189.998 723.896C191.494 724.929 193.335 725.338 195.128 725.035C196.921 724.733 198.526 723.742 199.6 722.275C200.647 720.793 201.075 718.963 200.796 717.171C200.517 715.379 199.551 713.766 198.104 712.673C191.12 707.685 180.271 682.993 180.022 660.297C180.022 654.685 180.645 647.826 183.139 641.965L190.372 632.987C198.478 627.624 219.054 624.507 243.371 649.074C257.214 663.165 301.733 714.543 297.618 791.611Z" fill="#452D34"/></svg>